<svg width="24" height="24" viewBox="0 0 24 24" fill="none" xmlns="http://www.w3.org/2000/svg">
<path d="M14 9.85925L9.85925 14C9.32733 13.4681 9 12.7398 9 11.9296C9 10.3093 10.3093 9 11.9296 9C12.7398 9 13.4681 9.32733 14 9.85925Z" stroke="#9A9A9A" stroke-width="1.5" stroke-linecap="round" stroke-linejoin="round"/>
<path d="M17 6.74359C15.5421 5.61538 13.876 5 12.1516 5C9.21083 5 6.47004 6.77778 4.56232 9.8547C3.81256 11.0598 3.81256 13.0855 4.56232 14.2906C5.22044 15.3504 5.98686 16.265 6.81993 17" stroke="#9A9A9A" stroke-width="1.5" stroke-linecap="round" stroke-linejoin="round"/>
<path d="M9 18.4003C9.93827 18.7893 10.9342 19 11.9465 19C14.8519 19 17.5597 17.3144 19.4444 14.3971C20.1852 13.2545 20.1852 11.3339 19.4444 10.1912C19.1728 9.76985 18.8765 9.37277 18.572 9" stroke="#9A9A9A" stroke-width="1.5" stroke-linecap="round" stroke-linejoin="round"/>
<path d="M15 13C14.8156 14 14 14.8156 13 15" stroke="#9A9A9A" stroke-width="1.5" stroke-linecap="round" stroke-linejoin="round"/>
<path d="M10 14L4 20" stroke="#9A9A9A" stroke-width="1.5" stroke-linecap="round" stroke-linejoin="round"/>
<path d="M20 4L14 10" stroke="#9A9A9A" stroke-width="1.5" stroke-linecap="round" stroke-linejoin="round"/>
</svg>
