<svg width="24" height="24" viewBox="0 0 24 24" fill="none" xmlns="http://www.w3.org/2000/svg">
<path d="M15 12C15 13.6592 13.6592 15 12 15C10.3408 15 9 13.6592 9 12C9 10.3408 10.3408 9 12 9C13.6592 9 15 10.3408 15 12Z" stroke="#9A9A9A" stroke-width="1.5" stroke-linecap="round" stroke-linejoin="round"/>
<path d="M12 19C14.8861 19 17.5759 17.2405 19.4481 14.1952C20.184 13.0024 20.184 10.9976 19.4481 9.80483C17.5759 6.75952 14.8861 5 12 5C9.11395 5 6.42412 6.75952 4.55187 9.80483C3.81604 10.9976 3.81604 13.0024 4.55187 14.1952C6.42412 17.2405 9.11395 19 12 19Z" stroke="#9A9A9A" stroke-width="1.5" stroke-linecap="round" stroke-linejoin="round"/>
</svg>
