<svg width="24" height="24" viewBox="0 0 24 24" fill="none" xmlns="http://www.w3.org/2000/svg">
<path d="M9.50002 20.3333H14.5C18.6667 20.3333 20.3334 18.6667 20.3334 14.5V9.5C20.3334 5.33334 18.6667 3.66667 14.5 3.66667H9.50002C5.33335 3.66667 3.66669 5.33334 3.66669 9.5V14.5C3.66669 18.6667 5.33335 20.3333 9.50002 20.3333Z" stroke="#9A9A9A" stroke-width="1.5" stroke-linecap="round" stroke-linejoin="round"/>
<path d="M9.49998 10.3333C10.4205 10.3333 11.1666 9.58714 11.1666 8.66667C11.1666 7.74619 10.4205 7 9.49998 7C8.57951 7 7.83331 7.74619 7.83331 8.66667C7.83331 9.58714 8.57951 10.3333 9.49998 10.3333Z" stroke="#9A9A9A" stroke-width="1.5" stroke-linecap="round" stroke-linejoin="round"/>
<path d="M4.22504 17.7917L8.33337 15.0334C8.9917 14.5917 9.9417 14.6417 10.5334 15.1501L10.8084 15.3917C11.4584 15.9501 12.5084 15.9501 13.1584 15.3917L16.625 12.4167C17.275 11.8584 18.325 11.8584 18.975 12.4167L20.3334 13.5834" stroke="#9A9A9A" stroke-width="1.5" stroke-linecap="round" stroke-linejoin="round"/>
</svg>
