<svg width="32" height="32" viewBox="0 0 32 32" fill="none" xmlns="http://www.w3.org/2000/svg">
<path d="M27.4933 11.2667C26.0933 5.10666 20.72 2.33333 16 2.33333C16 2.33333 16 2.33333 15.9867 2.33333C11.28 2.33333 5.89334 5.09333 4.49334 11.2533C2.93334 18.1333 7.14667 23.96 10.96 27.6267C12.3733 28.9867 14.1867 29.6667 16 29.6667C17.8133 29.6667 19.6267 28.9867 21.0267 27.6267C24.84 23.96 29.0533 18.1467 27.4933 11.2667ZM16 17.9467C13.68 17.9467 11.8 16.0667 11.8 13.7467C11.8 11.4267 13.68 9.54666 16 9.54666C18.32 9.54666 20.2 11.4267 20.2 13.7467C20.2 16.0667 18.32 17.9467 16 17.9467Z" fill="#0057FF"/>
</svg>
